<svg width="56" height="62" xmlns="http://www.w3.org/2000/svg" xmlns:xlink="http://www.w3.org/1999/xlink"><defs><linearGradient x1="39.036%" y1="30.228%" x2="72.171%" y2="94.572%" id="a"><stop stop-color="#FFBF44" offset="0%"/><stop stop-color="#F4B233" offset="100%"/></linearGradient><path d="M26.468 52.936c15.987 0 26.468-11.85 26.468-26.468S42.912 0 26.468 0C10.025 0 0 11.85 0 26.468s10.481 26.468 26.468 26.468z" id="b"/><filter x="-3.8%" y="-3.8%" width="107.6%" height="107.6%" filterUnits="objectBoundingBox" id="c"><feGaussianBlur stdDeviation="1.5" in="SourceAlpha" result="shadowBlurInner1"/><feOffset dy="1" in="shadowBlurInner1" result="shadowOffsetInner1"/><feComposite in="shadowOffsetInner1" in2="SourceAlpha" operator="arithmetic" k2="-1" k3="1" result="shadowInnerInner1"/><feColorMatrix values="0 0 0 0 1 0 0 0 0 0.946338592 0 0 0 0 0.661714804 0 0 0 0.5 0" in="shadowInnerInner1"/></filter><linearGradient x1="50%" y1="45.284%" x2="50%" y2="117.181%" id="f"><stop stop-color="#FFF" offset="0%"/><stop stop-color="#FDFFFF" offset="100%"/></linearGradient><path d="M47.873 23.299c.649 1.545.956 3.502.956 5.98 0 10.857-10.011 20.463-22.36 20.463-12.35 0-22.362-9.606-22.362-20.463 0-2.485.31-4.446.961-5.992 1.493-5.245 6.71-9.14 12.876-9.14 3.115 0 6.147 1.448 8.524 3.278 2.377-1.805 5.382-3.278 8.524-3.278 6.194 0 11.399 3.901 12.881 9.152z" id="e"/><filter x="-20.1%" y="-25.3%" width="140.2%" height="150.6%" filterUnits="objectBoundingBox" id="d"><feOffset in="SourceAlpha" result="shadowOffsetOuter1"/><feGaussianBlur stdDeviation="3" in="shadowOffsetOuter1" result="shadowBlurOuter1"/><feComposite in="shadowBlurOuter1" in2="SourceAlpha" operator="out" result="shadowBlurOuter1"/><feColorMatrix values="0 0 0 0 1 0 0 0 0 0.941176471 0 0 0 0 0 0 0 0 0.75 0" in="shadowBlurOuter1"/></filter><linearGradient x1="0%" y1="50%" x2="49.006%" y2="80.932%" id="g"><stop stop-color="#7B6359" offset="0%"/><stop stop-color="#665249" offset="100%"/></linearGradient><path d="M15.06 32.133c0-.86.783-1.558 1.75-1.558h.15c.966 0 1.75.698 1.75 1.558v6.924c0 .86-.783 1.558-1.75 1.558h-.15c-.967 0-1.75-.698-1.75-1.558v-6.924z" id="i"/><filter x="-123.3%" y="-44.8%" width="346.5%" height="189.6%" filterUnits="objectBoundingBox" id="h"><feOffset in="SourceAlpha" result="shadowOffsetOuter1"/><feGaussianBlur stdDeviation="1.5" in="shadowOffsetOuter1" result="shadowBlurOuter1"/><feColorMatrix values="0 0 0 0 1 0 0 0 0 0.733333333 0 0 0 0 0 0 0 0 0.55 0" in="shadowBlurOuter1"/></filter><path d="M34.226 32.133c0-.86.783-1.558 1.75-1.558h.15c.967 0 1.75.698 1.75 1.558v6.924c0 .86-.782 1.558-1.75 1.558h-.15c-.966 0-1.75-.698-1.75-1.558v-6.924z" id="k"/><filter x="-123.3%" y="-44.8%" width="346.5%" height="189.6%" filterUnits="objectBoundingBox" id="j"><feOffset in="SourceAlpha" result="shadowOffsetOuter1"/><feGaussianBlur stdDeviation="1.5" in="shadowOffsetOuter1" result="shadowBlurOuter1"/><feColorMatrix values="0 0 0 0 1 0 0 0 0 0.733333333 0 0 0 0 0 0 0 0 0.55 0" in="shadowBlurOuter1"/></filter></defs><g fill="none" fill-rule="evenodd"><g transform="translate(2 4.107)"><use fill="url(#a)" xlink:href="#b"/><use fill="#000" filter="url(#c)" xlink:href="#b"/></g><g transform="translate(2 4.107)"><use fill="#000" filter="url(#d)" xlink:href="#e"/><path stroke="#FFE16B" d="M47.412 23.493l-.02-.058c-1.446-5.122-6.526-8.788-12.4-8.788-2.735 0-5.587 1.176-8.221 3.177l-.305.231-.303-.233c-2.583-1.99-5.48-3.175-8.219-3.175-5.852 0-10.94 3.665-12.415 8.834-.62 1.47-.922 3.362-.922 5.798 0 10.726 9.945 19.963 21.861 19.963S48.33 40.005 48.33 29.279c0-2.43-.3-4.318-.917-5.786z" stroke-linejoin="square" fill="url(#f)"/></g><path d="M31.462 54.879c-1.506.676-1.75 2.15-.502 3.248 0 0 2.83 3.024 5.256 3.024 2.425 0 3.947-8.215 1.522-8.215s-6.276 1.943-6.276 1.943zm-5.532 0c1.507.676 1.751 2.15.503 3.248 0 0-2.83 3.024-5.256 3.024-2.425 0-3.947-8.215-1.522-8.215s6.275 1.943 6.275 1.943z" fill="#333"/><path d="M45.863 8.67c1.673-1.36 2.51-2.879 2.51-4.557 0-2.516-1.124-4.113-2.51-4.113-1.386 0-2.51 1.597-2.51 4.113 0 1.678.837 3.197 2.51 4.558zm-38.79 0c1.674-1.36 2.51-2.879 2.51-4.557C9.583 1.597 8.46 0 7.073 0c-1.386 0-2.51 1.597-2.51 4.113 0 1.678.837 3.197 2.51 4.558z" fill="url(#g)" transform="translate(2)"/><g transform="translate(2)"><use fill="#000" filter="url(#h)" xlink:href="#i"/><use fill="#FAB228" xlink:href="#i"/></g><g transform="translate(2)"><use fill="#000" filter="url(#j)" xlink:href="#k"/><use fill="#FAB228" xlink:href="#k"/></g></g></svg>